<?xml version="1.0" encoding="utf-8"?>
<!-- Generator: Adobe Illustrator 26.0.1, SVG Export Plug-In . SVG Version: 6.00 Build 0)  -->
<svg version="1.1" id="Layer_1" xmlns="http://www.w3.org/2000/svg" xmlns:xlink="http://www.w3.org/1999/xlink" x="0px" y="0px"
	 viewBox="0 0 1000 1000" style="enable-background:new 0 0 1000 1000;" xml:space="preserve">
<style type="text/css">
	.st0{fill:url(#SVGID_1_);}
	.st1{fill:url(#SVGID_00000026161107870657217070000006043705803420982463_);}
	.st2{fill:url(#SVGID_00000057855010785742919050000005932100704128071816_);}
	.st3{fill:url(#SVGID_00000021080815049199612610000001956038464077640895_);}
	.st4{fill:url(#SVGID_00000049919062000330650680000016736726146701352359_);}
	.st5{fill:url(#SVGID_00000136402602388082420090000017606306039307490696_);}
	.st6{fill:url(#SVGID_00000142854677423935519210000000724284265784062133_);}
	.st7{fill:url(#SVGID_00000019661729234733213360000017686148915619416968_);}
	.st8{fill:url(#SVGID_00000090978547484013713480000004139319890874084281_);}
	.st9{fill:none;stroke:#FFFFFF;stroke-miterlimit:10;}
	.st10{fill:#808080;}
	.st11{fill:url(#SVGID_00000124873134052934712120000009045399039563125922_);}
</style>
<g>
	<g>
		<linearGradient id="SVGID_1_" gradientUnits="userSpaceOnUse" x1="921.6942" y1="785.0012" x2="568.2163" y2="549.3492">
			<stop  offset="0" style="stop-color:#52524F"/>
			<stop  offset="0.09" style="stop-color:#595956"/>
			<stop  offset="0.2247" style="stop-color:#6D6D6B"/>
			<stop  offset="0.3864" style="stop-color:#8C8C8C"/>
			<stop  offset="0.4421" style="stop-color:#999999"/>
			<stop  offset="1" style="stop-color:#090909"/>
		</linearGradient>
		<path class="st0" d="M919.66,756.17l-42.82,0.95c-28.57,0.63-56.76-2.83-83.84-10.02c-0.02,0-0.05-0.02-0.07-0.02
			c-7.58-2.36-14.72-5.24-21.42-8.51c-40.87-19.89-70.71-57.01-82.99-100.73l-22.06-78.38l78.68,88.06
			c21.91,24.54,46.89,46.21,74.46,64.2C850.27,731.72,889.83,753.54,919.66,756.17z"/>
		
			<linearGradient id="SVGID_00000086690885332175396450000003715703398165608376_" gradientUnits="userSpaceOnUse" x1="736.0115" y1="617.165" x2="663.0318" y2="687.9163">
			<stop  offset="0" style="stop-color:#333333"/>
			<stop  offset="0.4777" style="stop-color:#4D4D4D"/>
			<stop  offset="1" style="stop-color:#333333"/>
		</linearGradient>
		<path style="fill:url(#SVGID_00000086690885332175396450000003715703398165608376_);" d="M771.49,738.57
			c6.7,3.27,13.84,6.14,21.42,8.51c-53.13-14.16-101.9-42.8-140.49-83.5l-70.51-74.39l55.84-61.86l28.69,32.12l22.06,78.38
			C700.79,681.57,730.62,718.69,771.49,738.57z"/>
		
			<linearGradient id="SVGID_00000121991685382138056820000006919872228605123494_" gradientUnits="userSpaceOnUse" x1="554.4158" y1="427.7182" x2="35.4801" y2="575.6274">
			<stop  offset="0" style="stop-color:#52524F"/>
			<stop  offset="0.09" style="stop-color:#595956"/>
			<stop  offset="0.2247" style="stop-color:#6D6D6B"/>
			<stop  offset="0.3864" style="stop-color:#8C8C8C"/>
			<stop  offset="0.4421" style="stop-color:#999999"/>
			<stop  offset="1" style="stop-color:#090909"/>
		</linearGradient>
		<path style="fill:url(#SVGID_00000121991685382138056820000006919872228605123494_);" d="M585.02,468.33
			c-8.58-9.41-33.39-36.02-63.54-62.66c-15.38-13.62-32.15-27.25-48.87-38.61c-3.27-2.27-6.58-4.44-9.97-6.51
			c-1.12-0.71-2.24-1.39-3.39-2.05c-1.07-0.66-2.12-1.29-3.19-1.9c-34.37-19.77-74.22-31.08-116.72-31.08
			c-129.54,0-234.54,105-234.54,234.54c0,82.09,42.17,154.33,106.05,196.2c-90.57-36.97-154.4-125.96-154.4-229.84
			c0-137.07,111.12-248.19,248.19-248.19c78.41,0,148.31,36.34,193.77,93.1L585.02,468.33z"/>
		
			<linearGradient id="SVGID_00000010309463610386271780000008716165172029676471_" gradientUnits="userSpaceOnUse" x1="597.3859" y1="732.1363" x2="477.053" y2="376.1515">
			<stop  offset="0" style="stop-color:#666666"/>
			<stop  offset="0.3529" style="stop-color:#999999"/>
			<stop  offset="1" style="stop-color:#090909"/>
		</linearGradient>
		<path style="fill:url(#SVGID_00000010309463610386271780000008716165172029676471_);" d="M845.94,302.83
			c-61.96-9.29-124.3,13.92-165.13,61.4l-92.57,107.66v0.02c0,0,0,0-0.02-0.02c-0.07-0.1-0.73-0.8-1.8-2.02
			c-0.44-0.44-0.88-0.95-1.39-1.54c-8.58-9.41-33.39-36.02-63.54-62.66c-15.4-13.62-32.15-27.25-48.89-38.61
			c-3.31-2.27-6.65-4.44-9.94-6.51c-1.15-0.71-2.27-1.39-3.41-2.05c-1.05-0.66-2.1-1.29-3.19-1.9
			c-20.96-12.06-43.99-20.99-68.44-26.1c-15.57-3.27-31.73-4.97-48.26-4.97c-129.54,0-234.54,105-234.54,234.54
			c0,82.09,42.14,154.33,106.05,196.2c28.91,11.85,60.57,18.35,93.79,18.35c77.29,0,146.31-35.32,191.82-90.69l73.58-81.58
			l11.89-13.16l55.81-61.86l135.59-150.28c26.2-29,60.57-49.38,98.61-58.42l30.71-7.31L845.94,302.83z M532.09,537.18l-94.57,109.97
			c-1.71,2.1-3.46,4.17-5.29,6.17c-30.54,33.9-74.8,55.23-124.01,55.23c-92.15,0-166.83-74.7-166.83-166.86
			s74.68-166.86,166.83-166.86c10.38,0,20.55,0.95,30.42,2.78c41.39,7.6,77.46,30.52,102.07,62.64l91.59,96.64L532.09,537.18z"/>
		
			<linearGradient id="SVGID_00000170273543085391463270000002325799891289908128_" gradientUnits="userSpaceOnUse" x1="580.2393" y1="508.4238" x2="408.6535" y2="383.6342">
			<stop  offset="0" style="stop-color:#52524F"/>
			<stop  offset="0.2056" style="stop-color:#4B4B48"/>
			<stop  offset="0.513" style="stop-color:#363634"/>
			<stop  offset="0.8823" style="stop-color:#151515"/>
			<stop  offset="1" style="stop-color:#090909"/>
		</linearGradient>
		<path style="fill:url(#SVGID_00000170273543085391463270000002325799891289908128_);" d="M588.25,471.9l-55.94,64.98l-91.59-96.64
			c-24.62-32.12-60.69-55.03-102.07-62.64l48.97-47.11c24.45,5.12,47.48,14.04,68.44,26.1c1.1,0.61,2.14,1.24,3.19,1.9
			c1.15,0.66,2.27,1.34,3.41,2.05c3.29,2.07,6.63,4.24,9.94,6.51c16.74,11.36,33.49,24.98,48.89,38.61
			c30.15,26.64,54.96,53.25,63.54,62.66c0.51,0.59,0.95,1.1,1.39,1.54c1.07,1.22,1.73,1.93,1.8,2.02
			C588.25,471.9,588.25,471.9,588.25,471.9z"/>
	</g>
	
		<linearGradient id="SVGID_00000018214231064512484200000016905780832557051569_" gradientUnits="userSpaceOnUse" x1="921.6942" y1="785.0012" x2="568.2163" y2="549.3492">
		<stop  offset="0" style="stop-color:#52524F"/>
		<stop  offset="0.09" style="stop-color:#595956"/>
		<stop  offset="0.2247" style="stop-color:#6D6D6B"/>
		<stop  offset="0.3864" style="stop-color:#8C8C8C"/>
		<stop  offset="0.4421" style="stop-color:#999999"/>
		<stop  offset="1" style="stop-color:#090909"/>
	</linearGradient>
	<path style="fill:url(#SVGID_00000018214231064512484200000016905780832557051569_);" d="M919.66,756.17l-42.82,0.95
		c-28.57,0.63-56.76-2.83-83.84-10.02c-0.02,0-0.05-0.02-0.07-0.02c-7.58-2.36-14.72-5.24-21.42-8.51
		c-40.87-19.89-70.71-57.01-82.99-100.73l-22.06-78.38l78.68,88.06c21.91,24.54,46.89,46.21,74.46,64.2
		C850.27,731.72,889.83,753.54,919.66,756.17z"/>
	
		<linearGradient id="SVGID_00000095337224391139583200000010858995041754627479_" gradientUnits="userSpaceOnUse" x1="736.0115" y1="617.165" x2="663.0318" y2="687.9163">
		<stop  offset="0" style="stop-color:#333333"/>
		<stop  offset="0.4777" style="stop-color:#4D4D4D"/>
		<stop  offset="1" style="stop-color:#333333"/>
	</linearGradient>
	<path style="fill:url(#SVGID_00000095337224391139583200000010858995041754627479_);" d="M771.49,738.57
		c6.7,3.27,13.84,6.14,21.42,8.51c-53.13-14.16-101.9-42.8-140.49-83.5l-70.51-74.39l55.84-61.86l28.69,32.12l22.06,78.38
		C700.79,681.57,730.62,718.69,771.49,738.57z"/>
	
		<linearGradient id="SVGID_00000018950150735450757790000008063479301346180532_" gradientUnits="userSpaceOnUse" x1="554.4158" y1="427.7182" x2="35.4801" y2="575.6274">
		<stop  offset="0" style="stop-color:#52524F"/>
		<stop  offset="0.09" style="stop-color:#595956"/>
		<stop  offset="0.2247" style="stop-color:#6D6D6B"/>
		<stop  offset="0.3864" style="stop-color:#8C8C8C"/>
		<stop  offset="0.4421" style="stop-color:#999999"/>
		<stop  offset="1" style="stop-color:#090909"/>
	</linearGradient>
	<path style="fill:url(#SVGID_00000018950150735450757790000008063479301346180532_);" d="M585.02,468.33
		c-8.58-9.41-33.39-36.02-63.54-62.66c-15.38-13.62-32.15-27.25-48.87-38.61c-3.27-2.27-6.58-4.44-9.97-6.51
		c-1.12-0.71-2.24-1.39-3.39-2.05c-1.07-0.66-2.12-1.29-3.19-1.9c-34.37-19.77-74.22-31.08-116.72-31.08
		c-129.54,0-234.54,105-234.54,234.54c0,82.09,42.17,154.33,106.05,196.2c-90.57-36.97-154.4-125.96-154.4-229.84
		c0-137.07,111.12-248.19,248.19-248.19c78.41,0,148.31,36.34,193.77,93.1L585.02,468.33z"/>
	
		<linearGradient id="SVGID_00000140695772501453314570000005873670884856807563_" gradientUnits="userSpaceOnUse" x1="884.2975" y1="276.3998" x2="717.7255" y2="378.9057">
		<stop  offset="0" style="stop-color:#52524F"/>
		<stop  offset="0.09" style="stop-color:#595956"/>
		<stop  offset="0.2247" style="stop-color:#6D6D6B"/>
		<stop  offset="0.3864" style="stop-color:#8C8C8C"/>
		<stop  offset="0.4421" style="stop-color:#999999"/>
		<stop  offset="1" style="stop-color:#090909"/>
	</linearGradient>
	<path style="fill:url(#SVGID_00000140695772501453314570000005873670884856807563_);" d="M773.33,377.04
		c8.24-9.17,17.3-17.62,27.1-25.12c9.85-7.43,20.33-14.09,31.46-19.48c11.12-5.38,22.7-9.87,34.66-13.03
		c11.97-3.09,23.97-5.83,35.95-8.76l0.06,1.33l-41.16-6.05c-13.73-2.05-27.4-4.18-41.22-4.16c-27.61-0.32-55.23,5.97-80.12,17.92
		c-12.45,5.97-24.22,13.36-35.02,21.98c-2.64,2.23-5.31,4.42-7.92,6.69l-7.5,7.16c-4.76,5.01-9.42,10.12-13.9,15.41
		c-18.09,21.03-36.43,41.83-54.64,62.75c17.96-21.14,35.78-42.39,53.86-63.42c4.45-5.31,9.11-10.48,13.88-15.54l7.51-7.24
		c2.61-2.3,5.29-4.51,7.93-6.78c10.83-8.74,22.65-16.24,35.17-22.33c25.02-12.13,52.86-18.77,80.76-18.39
		c13.96,0.05,27.77,2.28,41.44,4.39l41.13,6.26l3.43,0.52l-3.37,0.81c-11.98,2.87-24.04,5.56-35.96,8.57
		c-11.9,3.08-23.44,7.49-34.53,12.78c-11.07,5.35-21.63,11.76-31.56,19.04C790.88,359.7,781.71,368,773.33,377.04z"/>
	<path class="st9" d="M637.75,527.33"/>
	<path class="st10" d="M521.49,405.66c-52.52-47.15-106.83-79-179.3-79.62c-123.9-2.25-230.38,97.44-236.16,221.24
		c-4.95,81.83,36.4,163.78,105.23,208.38c89.66,37.87,201.31,15.42,269.45-54.96c12.5-13.15,75.81-83.73,89.34-98.35
		c-13.79,15.27-76.15,85.31-88.79,98.9c-68.33,70.94-180.02,93.75-270.8,55.62C141.14,712.1,99.08,629.63,104.32,547.19
		c6.04-124.49,113.27-224.66,237.88-222.15C414.66,325.7,469.31,358.24,521.49,405.66L521.49,405.66z"/>
	
		<linearGradient id="SVGID_00000160178280584820589680000011737155406956730543_" gradientUnits="userSpaceOnUse" x1="828.6942" y1="742.5013" x2="667.1361" y2="492.6434">
		<stop  offset="0" style="stop-color:#666666"/>
		<stop  offset="0.3529" style="stop-color:#999999"/>
		<stop  offset="1" style="stop-color:#090909"/>
	</linearGradient>
	<path style="fill:url(#SVGID_00000160178280584820589680000011737155406956730543_);" d="M919.66,756.17
		c-11.58,0.36-36.7,1.22-47.82,1.48c-26.34,0.27-54.16-3.2-78.92-9.84c-48.4-14.31-87.03-54.3-102.57-101.96
		c-8.56-28.66-15.98-57.56-23.9-86.39c8.54,28.59,16.43,57.45,25.04,86.01c15.44,47,54.91,86.46,101.43,100.89
		c20.57,5.49,41.72,8.92,63,9.99C874.5,757.31,900.84,756.18,919.66,756.17L919.66,756.17z"/>
</g>
</svg>
